<svg width="94" height="93" viewBox="0 0 94 93" fill="none" xmlns="http://www.w3.org/2000/svg">
<path d="M23.5 29.0633V27.9008C23.5 23.5603 23.5 21.3885 24.3538 19.7307C25.1048 18.2725 26.3023 17.0877 27.7762 16.3447C29.4518 15.5 31.647 15.5 36.0341 15.5H69.7174C74.1045 15.5 76.295 15.5 77.9706 16.3447C79.4446 17.0877 80.6461 18.2725 81.3971 19.7307C82.25 21.3869 82.25 23.5561 82.25 27.888V53.487C82.25 57.8189 82.25 59.985 81.3971 61.6412C80.6461 63.0994 79.4453 64.2881 77.9714 65.0311C76.2974 65.875 74.1073 65.875 69.7288 65.875H41.125M11.75 65.1008V43.4008C11.75 39.0604 11.75 36.8885 12.6038 35.2307C13.3548 33.7725 14.5523 32.5877 16.0262 31.8447C17.7018 31 19.897 31 24.2841 31H26.6341C31.0212 31 33.2117 31 34.8873 31.8447C36.3612 32.5877 37.5627 33.7725 38.3137 35.2307C39.1667 36.8869 39.1667 39.0561 39.1667 43.388V65.112C39.1667 69.4439 39.1667 71.61 38.3137 73.2662C37.5627 74.7244 36.3612 75.9131 34.8873 76.6561C33.2133 77.5 31.0239 77.5 26.6454 77.5H24.2712C19.8927 77.5 17.7002 77.5 16.0262 76.6561C14.5523 75.9131 13.3548 74.7244 12.6038 73.2662C11.75 71.6083 11.75 69.4412 11.75 65.1008Z" stroke="#953A61" stroke-width="7" stroke-linecap="round" stroke-linejoin="round"/>
</svg>
