<svg width="94" height="94" viewBox="0 0 94 94" fill="none" xmlns="http://www.w3.org/2000/svg">
<path d="M7.83333 78.3336H15.6667M15.6667 78.3336H39.1667M15.6667 78.3336V44.8545C15.6667 42.7617 15.6667 41.7147 15.9211 40.7409C16.1466 39.8779 16.5197 39.0612 17.0207 38.3232C17.586 37.4904 18.3717 36.7998 19.9467 35.4217L38.7529 18.9662C41.6727 16.4114 43.1327 15.1339 44.777 14.6476C46.2269 14.2189 47.7723 14.2189 49.2222 14.6476C50.8677 15.1342 52.3298 16.413 55.2541 18.9716L74.0541 35.4217C75.629 36.7998 76.4151 37.4904 76.9804 38.3232C77.4814 39.0612 77.8515 39.8779 78.0771 40.7409C78.3315 41.7147 78.3333 42.7617 78.3333 44.8545V78.3336M39.1667 78.3336H54.8333M39.1667 78.3336V62.667C39.1667 58.3407 42.6738 54.8336 47 54.8336C51.3262 54.8336 54.8333 58.3407 54.8333 62.667V78.3336M54.8333 78.3336H78.3333M78.3333 78.3336H86.1667" stroke="#953A61" stroke-width="7" stroke-linecap="round" stroke-linejoin="round"/>
</svg>
