<svg width="113" height="113" viewBox="0 0 113 113" fill="none" xmlns="http://www.w3.org/2000/svg">
<path d="M56.5 70.6252L70.625 56.5002M70.625 56.5002L56.5 42.3752M70.625 56.5002H18.8333M42.375 34.1289V33.9011C42.375 28.6273 42.375 25.9884 43.4014 23.974C44.3042 22.2022 45.7437 20.7627 47.5155 19.8599C49.5299 18.8335 52.1688 18.8335 57.4426 18.8335H79.1009C84.3747 18.8335 87.008 18.8335 89.0223 19.8599C90.7942 20.7627 92.2385 22.2022 93.1413 23.974C94.1667 25.9864 94.1667 28.6221 94.1667 33.8856V79.117C94.1667 84.3805 94.1667 87.0124 93.1413 89.0248C92.2385 90.7966 90.7942 92.2387 89.0223 93.1415C87.0099 94.1668 84.3781 94.1668 79.1145 94.1668H57.4271C52.1636 94.1668 49.5279 94.1668 47.5155 93.1415C45.7437 92.2387 44.3042 90.7953 43.4014 89.0234C42.375 87.0091 42.375 84.374 42.375 79.1002V78.8647" stroke="#953A61" stroke-width="7" stroke-linecap="round" stroke-linejoin="round"/>
</svg>
