<svg width="77" height="91" viewBox="0 0 77 91" fill="none" xmlns="http://www.w3.org/2000/svg">
<path d="M65.2894 33.8328L64.1145 33.0603C63.932 32.9403 63.8423 32.8802 63.7541 32.8178C62.878 32.1975 62.1395 31.3405 61.6006 30.3152C61.5464 30.2121 61.4953 30.1039 61.3908 29.8901C61.2864 29.6765 61.2335 29.5683 61.185 29.4612C60.7016 28.3945 60.4401 27.2058 60.4244 25.9959C60.4229 25.8743 60.4232 25.75 60.4268 25.5029L60.4497 23.8905C60.4864 21.3101 60.5049 20.016 60.198 18.8545C59.9255 17.8229 59.4695 16.8726 58.8607 16.0662C58.1724 15.1547 57.2198 14.5044 55.3124 13.2055L53.7281 12.1265C51.8261 10.8312 50.8747 10.1833 49.8649 9.93632C48.9716 9.71781 48.0497 9.72793 47.1596 9.96409C46.1549 10.2306 45.2155 10.8954 43.3377 12.2242L43.3271 12.2302L42.1919 13.0335C42.0124 13.1605 41.9215 13.2246 41.8316 13.2837C40.9388 13.8703 39.9421 14.1947 38.9211 14.2334C38.8182 14.2373 38.7135 14.2373 38.5042 14.2373C38.2962 14.2373 38.187 14.2373 38.0843 14.2334C37.0611 14.1945 36.0624 13.8684 35.1682 13.2793C35.0781 13.2199 34.9889 13.1554 34.809 13.0278L33.6666 12.2172C31.7761 10.8759 30.8293 10.2042 29.8191 9.93632C28.9254 9.69933 28.0003 9.69277 27.1037 9.9141C26.0913 10.164 25.1397 10.8167 23.2366 12.1221L23.2282 12.1265L21.6636 13.1997L21.6463 13.2122C19.7603 14.5058 18.815 15.1542 18.1325 16.062C17.5269 16.8676 17.0743 17.8163 16.8033 18.8453C16.4971 20.0083 16.5134 21.3052 16.5503 23.8977L16.5732 25.5079C16.5767 25.7517 16.5827 25.8729 16.5812 25.9928C16.566 27.2052 16.3011 28.3963 15.8163 29.4649C15.7683 29.5706 15.7167 29.6762 15.6135 29.8873C15.5102 30.0986 15.4602 30.2036 15.4067 30.3056C14.8654 31.3363 14.1235 32.1983 13.2419 32.8196C13.1546 32.8811 13.0627 32.9402 12.8821 33.0584L11.7221 33.8182C9.7921 35.0822 8.82731 35.7148 8.12528 36.615C7.50424 37.4113 7.03508 38.3559 6.7487 39.3847C6.42497 40.5476 6.42524 41.8516 6.43026 44.4594L6.43435 46.5908C6.43933 49.1811 6.44616 50.4754 6.77061 51.6304C7.05765 52.6523 7.52338 53.5913 8.14095 54.3829C8.83901 55.2776 9.7942 55.9062 11.7096 57.1655L12.8593 57.9214C13.0549 58.05 13.1534 58.1135 13.2477 58.1807C14.1214 58.8024 14.8574 59.662 15.3942 60.6869C15.4521 60.7976 15.5078 60.9125 15.6191 61.1423C15.729 61.3693 15.7853 61.4828 15.8361 61.5966C16.3067 62.6494 16.5587 63.8193 16.5758 65.0099C16.5777 65.1385 16.5761 65.2686 16.5724 65.5301L16.5503 67.0753C16.5131 69.6767 16.4969 70.9789 16.805 72.1451C17.0775 73.1769 17.533 74.127 18.1419 74.9334C18.8302 75.845 19.7843 76.4948 21.6918 77.7938L23.2757 78.8725C25.1778 80.1679 26.1285 80.815 27.1383 81.062C28.0316 81.2805 28.9541 81.272 29.8442 81.0358C30.8503 80.7689 31.7929 80.1019 33.676 78.7693L34.8112 77.966C34.9908 77.8389 35.0817 77.7752 35.1717 77.7161C36.0645 77.1294 37.0602 76.8034 38.0812 76.7646C38.1841 76.7607 38.2888 76.7607 38.4981 76.7607C38.7079 76.7607 38.8124 76.7607 38.9156 76.7647C39.9388 76.8035 40.9405 77.1307 41.8347 77.7198C41.9134 77.7716 41.9922 77.8276 42.1306 77.9258L43.3374 78.7821C45.2283 80.1237 46.173 80.7933 47.1832 81.0612C48.077 81.2982 49.0028 81.3079 49.8994 81.0865C50.9115 80.8367 51.865 80.1827 53.7671 78.878L55.3552 77.7887C57.2424 76.4943 58.1887 75.8452 58.8714 74.9371C59.477 74.1315 59.9302 73.1832 60.2012 72.1543C60.5052 70.9997 60.4869 69.7128 60.4505 67.1577L60.4268 65.4913C60.4233 65.2474 60.4229 65.1261 60.4244 65.0062C60.4396 63.7938 60.7002 62.6019 61.185 61.5333C61.2328 61.4278 61.2849 61.3213 61.3878 61.1109C61.491 60.8997 61.5444 60.7944 61.598 60.6924C62.1393 59.6617 62.8819 58.7989 63.7635 58.1776C63.8497 58.1169 63.9384 58.0588 64.1147 57.9434L64.1207 57.9401L65.2807 57.1803C67.2108 55.9163 68.1774 55.2831 68.8794 54.3829C69.5005 53.5865 69.969 52.6432 70.2554 51.6145C70.5772 50.4584 70.5747 49.162 70.5698 46.5847L70.5656 44.4075C70.5606 41.8172 70.5579 40.523 70.2335 39.368C69.9464 38.3462 69.4781 37.4071 68.8605 36.6155C68.1631 35.7217 67.2066 35.0928 65.2949 33.836L65.2894 33.8328Z" stroke="#953A61" stroke-width="7" stroke-linecap="round" stroke-linejoin="round"/>
<path d="M25.6677 45.4999C25.6677 53.8762 31.4134 60.6665 38.5011 60.6665C45.5887 60.6665 51.3344 53.8762 51.3344 45.4999C51.3344 37.1235 45.5887 30.3332 38.5011 30.3332C31.4134 30.3332 25.6677 37.1235 25.6677 45.4999Z" stroke="#953A61" stroke-width="7" stroke-linecap="round" stroke-linejoin="round"/>
</svg>
