<svg width="94" height="94" viewBox="0 0 94 94" fill="none" xmlns="http://www.w3.org/2000/svg">
<path d="M15.6667 58.75V65.8007C15.6667 70.1878 15.6667 72.3802 16.5205 74.0558C17.2715 75.5298 18.4689 76.7293 19.9429 77.4803C21.6169 78.3333 23.8094 78.3333 28.1879 78.3333H47M15.6667 58.75V35.25M15.6667 58.75H47M15.6667 35.25V28.2007C15.6667 23.8136 15.6667 21.6185 16.5205 19.9428C17.2715 18.4689 18.4689 17.2714 19.9429 16.5204C21.6185 15.6666 23.8137 15.6666 28.2008 15.6666H47M15.6667 35.25H47M47 15.6666H65.8008C70.1878 15.6666 72.3802 15.6666 74.0559 16.5204C75.5298 17.2714 76.7294 18.4689 77.4804 19.9428C78.3333 21.6168 78.3333 23.8094 78.3333 28.1879V35.25M47 15.6666V35.25M47 35.25V58.75M47 35.25H78.3333M47 58.75V78.3333M47 58.75H78.3333M47 78.3333H65.814C70.1925 78.3333 72.3819 78.3333 74.0559 77.4803C75.5298 76.7293 76.7294 75.5298 77.4804 74.0558C78.3333 72.3818 78.3333 70.1925 78.3333 65.814V58.75M78.3333 58.75V35.25" stroke="#953A61" stroke-width="7" stroke-linecap="round" stroke-linejoin="round"/>
</svg>
