<svg width="94" height="93" viewBox="0 0 94 93" fill="none" xmlns="http://www.w3.org/2000/svg">
<path d="M58.75 77.5H35.25M15.6667 53.4758V31.7758C15.6667 27.4354 15.6667 25.2635 16.5205 23.6057C17.2715 22.1475 18.4689 20.9627 19.9429 20.2197C21.6185 19.375 23.8137 19.375 28.2008 19.375H65.8008C70.1878 19.375 72.3783 19.375 74.054 20.2197C75.5279 20.9627 76.7294 22.1475 77.4804 23.6057C78.3333 25.2619 78.3333 27.4311 78.3333 31.763V53.487C78.3333 57.8189 78.3333 59.985 77.4804 61.6412C76.7294 63.0994 75.5279 64.2881 74.054 65.0311C72.38 65.875 70.1906 65.875 65.8121 65.875H28.1879C23.8094 65.875 21.6169 65.875 19.9429 65.0311C18.4689 64.2881 17.2715 63.0994 16.5205 61.6412C15.6667 59.9833 15.6667 57.8162 15.6667 53.4758ZM56.7917 42.625L39.1667 31V54.25L56.7917 42.625Z" stroke="#953A61" stroke-width="7" stroke-linecap="round" stroke-linejoin="round"/>
</svg>
